<svg width="224" height="119" viewBox="0 0 224 119" fill="none" xmlns="http://www.w3.org/2000/svg">
<g id="Group 8759">
<path id="Background" fill-rule="evenodd" clip-rule="evenodd" d="M47.845 102.337H142.008C142.541 102.337 143.06 102.28 143.56 102.171C144.06 102.28 144.579 102.337 145.112 102.337H198.92C202.92 102.337 206.163 99.0945 206.163 95.0941C206.163 91.0937 202.92 87.8508 198.92 87.8508H192.711C188.711 87.8508 185.468 84.6078 185.468 80.6075C185.468 76.6071 188.711 73.3642 192.711 73.3642H212.372C216.372 73.3642 219.615 70.1212 219.615 66.1208C219.615 62.1205 216.372 58.8775 212.372 58.8775H189.607C193.607 58.8775 196.85 55.6346 196.85 51.6342C196.85 47.6339 193.607 44.3909 189.607 44.3909H123.382C127.383 44.3909 130.626 41.148 130.626 37.1476C130.626 33.1472 127.383 29.9043 123.382 29.9043H64.4011C60.4007 29.9043 57.1578 33.1472 57.1578 37.1476C57.1578 41.148 60.4007 44.3909 64.4011 44.3909H23.0108C19.0104 44.3909 15.7675 47.6339 15.7675 51.6342C15.7675 55.6346 19.0104 58.8775 23.0108 58.8775H48.8797C52.8801 58.8775 56.123 62.1205 56.123 66.1208C56.123 70.1212 52.8801 73.3642 48.8797 73.3642H7.4894C3.48903 73.3642 0.246094 76.6071 0.246094 80.6075C0.246094 84.6078 3.48903 87.8508 7.4894 87.8508H47.845C43.8446 87.8508 40.6017 91.0937 40.6017 95.0941C40.6017 99.0945 43.8446 102.337 47.845 102.337ZM216.511 102.338C220.511 102.338 223.754 99.0946 223.754 95.0943C223.754 91.0939 220.511 87.851 216.511 87.851C212.511 87.851 209.268 91.0939 209.268 95.0943C209.268 99.0946 212.511 102.338 216.511 102.338Z" fill="#DCE8F8"/>
<g id="Blogs_empty">
<path id="Union" fill-rule="evenodd" clip-rule="evenodd" d="M95.237 4.90709C95.237 2.19698 97.434 0 100.144 0H110.239C112.949 0 115.146 2.19698 115.146 4.90709C115.146 7.6172 112.949 9.81418 110.239 9.81418H100.144C97.434 9.81418 95.237 7.6172 95.237 4.90709ZM100.144 3.72513C99.4914 3.72513 98.9622 4.25431 98.9622 4.90709C98.9622 5.55987 99.4914 6.08905 100.144 6.08905H110.239C110.892 6.08905 111.421 5.55987 111.421 4.90709C111.421 4.25431 110.892 3.72513 110.239 3.72513L100.144 3.72513ZM56.1232 15.8318C47.8938 15.8318 41.2227 22.503 41.2227 30.7323V103.372C41.2227 111.602 47.8938 118.273 56.1232 118.273H153.063C161.292 118.273 167.963 111.602 167.963 103.372V101.45C168.55 101.49 169.143 101.51 169.74 101.51C184.141 101.51 195.816 89.8352 195.816 75.4339C195.816 61.0326 184.141 49.358 169.74 49.358C169.143 49.358 168.55 49.378 167.963 49.4175V30.7323C167.963 22.503 161.292 15.8318 153.063 15.8318H56.1232ZM164.238 49.9394V42.3388H44.9478V103.372C44.9478 109.544 49.9512 114.548 56.1232 114.548H153.063C159.235 114.548 164.238 109.544 164.238 103.372V100.928C152.479 98.4028 143.664 87.9478 143.664 75.4339C143.664 62.92 152.479 52.465 164.238 49.9394ZM164.238 30.7323V38.6137H44.9478V30.7323C44.9478 24.5603 49.9512 19.5569 56.1232 19.5569H153.063C159.235 19.5569 164.238 24.5603 164.238 30.7323ZM147.389 75.4339C147.389 63.0899 157.396 53.0831 169.74 53.0831C182.084 53.0831 192.09 63.0899 192.09 75.4339C192.09 87.7779 182.084 97.7847 169.74 97.7847C157.396 97.7847 147.389 87.7779 147.389 75.4339ZM165.083 63.3272C165.083 60.7556 167.168 58.6708 169.74 58.6708C172.311 58.6708 174.396 60.7556 174.396 63.3272V74.5026C174.396 77.0743 172.311 79.159 169.74 79.159C167.168 79.159 165.083 77.0743 165.083 74.5026V63.3272ZM169.74 62.3959C169.225 62.3959 168.808 62.8129 168.808 63.3272V74.5026C168.808 75.0169 169.225 75.4339 169.74 75.4339C170.254 75.4339 170.671 75.0169 170.671 74.5026V63.3272C170.671 62.8129 170.254 62.3959 169.74 62.3959ZM169.74 92.197C167.168 92.197 165.083 90.1122 165.083 87.5406C165.083 84.9689 167.168 82.8842 169.74 82.8842C172.311 82.8842 174.396 84.9689 174.396 87.5406C174.396 90.1122 172.311 92.197 169.74 92.197ZM168.808 87.5406C168.808 88.0549 169.225 88.4718 169.74 88.4718C170.254 88.4718 170.671 88.0549 170.671 87.5406C170.671 87.0262 170.254 86.6093 169.74 86.6093C169.225 86.6093 168.808 87.0262 168.808 87.5406ZM58.917 34.4575C61.4887 34.4575 63.5734 32.3727 63.5734 29.801C63.5734 27.2294 61.4887 25.1446 58.917 25.1446C56.3454 25.1446 54.2606 27.2294 54.2606 29.801C54.2606 32.3727 56.3454 34.4575 58.917 34.4575ZM76.6114 29.801C76.6114 32.3727 74.5266 34.4575 71.955 34.4575C69.3833 34.4575 67.2986 32.3727 67.2986 29.801C67.2986 27.2294 69.3833 25.1446 71.955 25.1446C74.5266 25.1446 76.6114 27.2294 76.6114 29.801ZM54.2606 61.4646C54.2606 58.893 56.3454 56.8082 58.917 56.8082H86.8555C89.4272 56.8082 91.5119 58.893 91.5119 61.4646C91.5119 64.0363 89.4272 66.1211 86.8555 66.1211H58.917C56.3454 66.1211 54.2606 64.0363 54.2606 61.4646ZM54.2606 76.3652C54.2606 73.7935 56.3454 71.7088 58.917 71.7088H86.8555H114.794C117.366 71.7088 119.45 73.7935 119.45 76.3652C119.45 78.9368 117.366 81.0216 114.794 81.0216H58.917C56.3454 81.0216 54.2606 78.9368 54.2606 76.3652ZM54.2606 91.2657C54.2606 88.694 56.3454 86.6093 58.917 86.6093H114.794C117.366 86.6093 119.45 88.694 119.45 91.2657C119.45 93.8374 117.366 95.9221 114.794 95.9221H58.917C56.3454 95.9221 54.2606 93.8374 54.2606 91.2657Z" fill="#8FA8CA"/>
</g>
</g>
</svg>
