<svg xmlns="http://www.w3.org/2000/svg">

  <svg id="chat-icon" fill="currentColor" height="800px" width="800px" version="1.1"
    xmlns="http://www.w3.org/2000/svg" xmlns:xlink="http://www.w3.org/1999/xlink"
    viewBox="0 0 60 60" xml:space="preserve">
   <path d="M30,1.5c-16.542,0-30,12.112-30,27c0,5.205,1.647,10.246,4.768,14.604c-0.591,6.537-2.175,11.39-4.475,13.689
  	c-0.304,0.304-0.38,0.769-0.188,1.153C0.276,58.289,0.625,58.5,1,58.5c0.046,0,0.093-0.003,0.14-0.01
  	c0.405-0.057,9.813-1.412,16.617-5.338C21.622,54.711,25.738,55.5,30,55.5c16.542,0,30-12.112,30-27S46.542,1.5,30,1.5z"/>
  </svg>

  <svg id="text-add-space" width="24" height="24" viewBox="0 0 24 24" fill="none"
    xmlns="http://www.w3.org/2000/svg">
    <path
      d="M17.7929 9.29289C18.1834 8.90237 18.8166 8.90237 19.2071 9.29289C19.5976 9.68342 19.5976 10.3166 19.2071 10.7071L17.9142 12L19.2071 13.2929C19.5976 13.6834 19.5976 14.3166 19.2071 14.7071C18.8166 15.0976 18.1834 15.0976 17.7929 14.7071L15.7929 12.7071C15.4024 12.3166 15.4024 11.6834 15.7929 11.2929L17.7929 9.29289ZM12 3C12.5523 3 13 3.44771 13 4L13 20C13 20.5523 12.5523 21 12 21C11.4477 21 11 20.5523 11 20L11 4C11 3.44771 11.4477 3 12 3ZM6 3C6.55228 3 7 3.44771 7 4L7 20C7 20.5523 6.55228 21 6 21C5.44771 21 5 20.5523 5 20L5 4C5 3.44771 5.44772 3 6 3Z"
      fill="currentColor" />
  </svg>

  <svg id="document-queue-add" width="24" height="24" viewBox="0 0 24 24" fill="none"
    xmlns="http://www.w3.org/2000/svg">
    <path
      d="M7 2C5.89543 2 5 2.89543 5 4V17C5 18.1046 5.89543 19 7 19H11.1739C11.0602 18.5185 11 18.0163 11 17.5H7C6.72386 17.5 6.5 17.2761 6.5 17V4C6.5 3.72386 6.72386 3.5 7 3.5H12.5001L12.5 6.74996C12.5 7.71647 13.2835 8.5 14.25 8.5H17.5V11C18.0163 11 18.5185 11.0602 19 11.1739V7.76777C19 7.23733 18.7893 6.72863 18.4142 6.35355L14.6464 2.58579C14.2714 2.21071 13.7627 2 13.2322 2H7ZM14 6.74999L14.0001 4.06075L16.9393 7H14.25C14.112 7 14 6.88807 14 6.74999ZM6.5 20.5H11.7322C12.0194 21.051 12.3832 21.5557 12.8096 22H6.5C4.01472 22 2 19.9853 2 17.5V15.75C2 15.3358 2.33579 15 2.75 15C3.16421 15 3.5 15.3358 3.5 15.75V17.5C3.5 19.1569 4.84315 20.5 6.5 20.5ZM8 5.75C8 5.33579 8.33579 5 8.75 5H10.25C10.6642 5 11 5.33579 11 5.75C11 6.16421 10.6642 6.5 10.25 6.5H8.75C8.33579 6.5 8 6.16421 8 5.75ZM8.75 8C8.33579 8 8 8.33579 8 8.75C8 9.16421 8.33579 9.5 8.75 9.5H10.25C10.6642 9.5 11 9.16421 11 8.75C11 8.33579 10.6642 8 10.25 8H8.75ZM8.75 11C8.33579 11 8 11.3358 8 11.75C8 12.1642 8.33579 12.5 8.75 12.5H10.25C10.6642 12.5 11 12.1642 11 11.75C11 11.3358 10.6642 11 10.25 11H8.75ZM23 17.5C23 14.4624 20.5376 12 17.5 12C14.4624 12 12 14.4624 12 17.5C12 20.5376 14.4624 23 17.5 23C20.5376 23 23 20.5376 23 17.5ZM18.0006 18L18.0011 20.5035C18.0011 20.7797 17.7773 21.0035 17.5011 21.0035C17.225 21.0035 17.0011 20.7797 17.0011 20.5035L17.0006 18H14.4956C14.2197 18 13.9961 17.7762 13.9961 17.5C13.9961 17.2239 14.2197 17 14.4956 17H17.0005L17 14.4993C17 14.2231 17.2239 13.9993 17.5 13.9993C17.7761 13.9993 18 14.2231 18 14.4993L18.0005 17H20.4966C20.7725 17 20.9961 17.2239 20.9961 17.5C20.9961 17.7762 20.7725 18 20.4966 18H18.0006Z"
      fill="currentColor" />
  </svg>

  <svg id="success-filled" width="16" height="16" viewBox="0 0 16 16" fill="none"
    xmlns="http://www.w3.org/2000/svg">
    <path
      d="M8 0C12.4183 0 16 3.58172 16 8C16 12.4183 12.4183 16 8 16C3.58172 16 0 12.4183 0 8C0 3.58172 3.58172 0 8 0ZM11.3584 5.64645C11.1849 5.47288 10.9154 5.4536 10.7206 5.58859L10.6513 5.64645L7 9.298L5.35355 7.65131L5.28431 7.59346C5.08944 7.45846 4.82001 7.47775 4.64645 7.65131C4.47288 7.82488 4.4536 8.09431 4.58859 8.28917L4.64645 8.35842L6.64645 10.3584L6.71569 10.4163C6.8862 10.5344 7.1138 10.5344 7.28431 10.4163L7.35355 10.3584L11.3584 6.35355L11.4163 6.28431C11.5513 6.08944 11.532 5.82001 11.3584 5.64645Z"
      fill="currentColor" />
  </svg>
  <svg id="warning-filled" width="18" height="16" viewBox="0 0 18 16" fill="none"
    xmlns="http://www.w3.org/2000/svg">
    <path
      d="M2.62198 16C2.40176 16 2.19283 15.9576 1.9952 15.8729C1.80321 15.7882 1.63098 15.6753 1.47852 15.5341C1.33171 15.3873 1.21313 15.2179 1.12278 15.0259C1.03808 14.8283 0.995728 14.6194 0.995728 14.3992C0.995728 14.1394 1.05219 13.8909 1.16513 13.6538L7.54311 0.897829C7.68427 0.615493 7.88473 0.395271 8.14448 0.237162C8.40423 0.0790542 8.68939 0 8.99996 0C9.31053 0 9.59569 0.0790542 9.85544 0.237162C10.1152 0.395271 10.3156 0.615493 10.4568 0.897829L16.8348 13.6538C16.9477 13.8909 17.0042 14.1394 17.0042 14.3992C17.0042 14.6194 16.959 14.8283 16.8687 15.0259C16.784 15.2179 16.6654 15.3873 16.5129 15.5341C16.3661 15.6753 16.1939 15.7882 15.9963 15.8729C15.8043 15.9576 15.5982 16 15.3779 16H2.62198ZM9.54205 10.1726V5.83589C9.54205 5.68908 9.4884 5.56203 9.38112 5.45474C9.27383 5.34745 9.14678 5.29381 8.99996 5.29381C8.85315 5.29381 8.7261 5.34745 8.61881 5.45474C8.51152 5.56203 8.45788 5.68908 8.45788 5.83589V10.1726C8.45788 10.325 8.5087 10.4549 8.61034 10.5622C8.71763 10.6638 8.8475 10.7147 8.99996 10.7147C9.15242 10.7147 9.27947 10.6638 9.38112 10.5622C9.4884 10.4549 9.54205 10.325 9.54205 10.1726ZM9.81309 12.3409C9.81309 12.2336 9.7905 12.132 9.74533 12.036C9.7058 11.9344 9.64651 11.8468 9.56746 11.7734C9.49405 11.6944 9.40653 11.6351 9.30488 11.5956C9.20889 11.5504 9.10725 11.5278 8.99996 11.5278C8.88703 11.5278 8.77974 11.5504 8.6781 11.5956C8.5821 11.6407 8.4974 11.7 8.424 11.7734C8.35059 11.8468 8.2913 11.9344 8.24612 12.036C8.2066 12.1376 8.18683 12.2421 8.18683 12.3494C8.18683 12.4623 8.2066 12.5696 8.24612 12.6713C8.2913 12.7672 8.35059 12.8519 8.424 12.9254C8.50305 12.9931 8.59057 13.0496 8.68657 13.0948C8.78256 13.1343 8.88703 13.154 8.99996 13.154C9.22583 13.154 9.41782 13.075 9.57593 12.9169C9.73404 12.7588 9.81309 12.5668 9.81309 12.3409Z"
      fill="currentColor" />
  </svg>
  <svg id="error-filled" width="16" height="16" viewBox="0 0 16 16" fill="none"
    xmlns="http://www.w3.org/2000/svg">
    <path
      d="M0 8C0 7.26667 0.0944444 6.56111 0.283333 5.88333C0.477778 5.2 0.747222 4.56111 1.09167 3.96667C1.44167 3.37222 1.85833 2.83333 2.34167 2.35C2.83056 1.86111 3.37222 1.44444 3.96667 1.1C4.56111 0.75 5.19722 0.480556 5.875 0.291667C6.55833 0.0972222 7.26667 0 8 0C8.73333 0 9.43889 0.0972222 10.1167 0.291667C10.8 0.480556 11.4361 0.75 12.025 1.1C12.6194 1.44444 13.1611 1.86111 13.65 2.35C14.1389 2.83889 14.5556 3.38056 14.9 3.975C15.25 4.56389 15.5194 5.2 15.7083 5.88333C15.9028 6.56111 16 7.26667 16 8C16 8.73333 15.9028 9.44167 15.7083 10.125C15.5194 10.8028 15.25 11.4389 14.9 12.0333C14.5556 12.6278 14.1389 13.1694 13.65 13.6583C13.1667 14.1417 12.6278 14.5583 12.0333 14.9083C11.4389 15.2528 10.8 15.5222 10.1167 15.7167C9.43889 15.9056 8.73333 16 8 16C7.26111 16 6.55 15.9056 5.86667 15.7167C5.18889 15.5222 4.55278 15.2528 3.95833 14.9083C3.36944 14.5583 2.83056 14.1417 2.34167 13.6583C1.85833 13.1694 1.44167 12.6306 1.09167 12.0417C0.747222 11.4472 0.477778 10.8083 0.283333 10.125C0.0944444 9.44167 0 8.73333 0 8ZM5.06667 11.6C5.15 11.6 5.23333 11.5833 5.31667 11.55C5.40555 11.5167 5.48056 11.4694 5.54167 11.4083L8 8.94167L10.4583 11.4083C10.5194 11.4694 10.5917 11.5167 10.675 11.55C10.7639 11.5833 10.85 11.6 10.9333 11.6C11.1222 11.6 11.2806 11.5361 11.4083 11.4083C11.5361 11.2806 11.6 11.1222 11.6 10.9333C11.6 10.7444 11.5361 10.5861 11.4083 10.4583L8.94167 8L11.4083 5.54167C11.5361 5.41389 11.6 5.25556 11.6 5.06667C11.6 4.87778 11.5361 4.71944 11.4083 4.59167C11.2806 4.46389 11.1222 4.4 10.9333 4.4C10.7444 4.4 10.5861 4.46389 10.4583 4.59167L8 7.05833L5.54167 4.59167C5.41389 4.46389 5.25556 4.4 5.06667 4.4C4.87778 4.4 4.71944 4.46389 4.59167 4.59167C4.46389 4.71944 4.4 4.87778 4.4 5.06667C4.4 5.15 4.41667 5.23611 4.45 5.325C4.48333 5.40833 4.53056 5.48056 4.59167 5.54167L7.05833 8L4.59167 10.4583C4.53056 10.5194 4.48333 10.5944 4.45 10.6833C4.41667 10.7667 4.4 10.85 4.4 10.9333C4.4 11.1167 4.46389 11.275 4.59167 11.4083C4.725 11.5361 4.88333 11.6 5.06667 11.6Z"
      fill="currentColor" />
  </svg>
  <svg id="info-filled" width="16" height="16" viewBox="0 0 16 16" fill="none"
    xmlns="http://www.w3.org/2000/svg">
    <path
      d="M15.928 8C15.928 3.58172 12.3785 0 8 0C3.6215 0 0.0720215 3.58172 0.0720215 8C0.0720215 12.4183 3.6215 16 8 16C12.3785 16 15.928 12.4183 15.928 8ZM7.51248 6.91012C7.55444 6.67687 7.75675 6.49999 8 6.49999C8.24325 6.49999 8.44556 6.67687 8.48752 6.91012L8.4955 6.99999V11.5021L8.48752 11.592C8.44556 11.8253 8.24325 12.0021 8 12.0021C7.75675 12.0021 7.55444 11.8253 7.51248 11.592L7.5045 11.5021V6.99999L7.51248 6.91012ZM7.25675 4.74999C7.25675 4.33578 7.58951 3.99999 8 3.99999C8.41048 3.99999 8.74325 4.33578 8.74325 4.74999C8.74325 5.16421 8.41048 5.49999 8 5.49999C7.58951 5.49999 7.25675 5.16421 7.25675 4.74999Z"
      fill="currentColor" />
  </svg>
  <svg id="delete-filled" width="16" height="16" viewBox="0 0 16 16" fill="none"
    xmlns="http://www.w3.org/2000/svg">
    <path
      d="M0 8C0 7.26667 0.0944444 6.56111 0.283333 5.88333C0.477778 5.2 0.747222 4.56111 1.09167 3.96667C1.44167 3.37222 1.85833 2.83333 2.34167 2.35C2.83056 1.86111 3.37222 1.44444 3.96667 1.1C4.56111 0.75 5.19722 0.480556 5.875 0.291667C6.55833 0.0972222 7.26667 0 8 0C8.73333 0 9.43889 0.0972222 10.1167 0.291667C10.8 0.480556 11.4361 0.75 12.025 1.1C12.6194 1.44444 13.1611 1.86111 13.65 2.35C14.1389 2.83889 14.5556 3.38056 14.9 3.975C15.25 4.56389 15.5194 5.2 15.7083 5.88333C15.9028 6.56111 16 7.26667 16 8C16 8.73333 15.9028 9.44167 15.7083 10.125C15.5194 10.8028 15.25 11.4389 14.9 12.0333C14.5556 12.6278 14.1389 13.1694 13.65 13.6583C13.1667 14.1417 12.6278 14.5583 12.0333 14.9083C11.4389 15.2528 10.8 15.5222 10.1167 15.7167C9.43889 15.9056 8.73333 16 8 16C7.26111 16 6.55 15.9056 5.86667 15.7167C5.18889 15.5222 4.55278 15.2528 3.95833 14.9083C3.36944 14.5583 2.83056 14.1417 2.34167 13.6583C1.85833 13.1694 1.44167 12.6306 1.09167 12.0417C0.747222 11.4472 0.477778 10.8083 0.283333 10.125C0.0944444 9.44167 0 8.73333 0 8ZM5.06667 11.6C5.15 11.6 5.23333 11.5833 5.31667 11.55C5.40555 11.5167 5.48056 11.4694 5.54167 11.4083L8 8.94167L10.4583 11.4083C10.5194 11.4694 10.5917 11.5167 10.675 11.55C10.7639 11.5833 10.85 11.6 10.9333 11.6C11.1222 11.6 11.2806 11.5361 11.4083 11.4083C11.5361 11.2806 11.6 11.1222 11.6 10.9333C11.6 10.7444 11.5361 10.5861 11.4083 10.4583L8.94167 8L11.4083 5.54167C11.5361 5.41389 11.6 5.25556 11.6 5.06667C11.6 4.87778 11.5361 4.71944 11.4083 4.59167C11.2806 4.46389 11.1222 4.4 10.9333 4.4C10.7444 4.4 10.5861 4.46389 10.4583 4.59167L8 7.05833L5.54167 4.59167C5.41389 4.46389 5.25556 4.4 5.06667 4.4C4.87778 4.4 4.71944 4.46389 4.59167 4.59167C4.46389 4.71944 4.4 4.87778 4.4 5.06667C4.4 5.15 4.41667 5.23611 4.45 5.325C4.48333 5.40833 4.53056 5.48056 4.59167 5.54167L7.05833 8L4.59167 10.4583C4.53056 10.5194 4.48333 10.5944 4.45 10.6833C4.41667 10.7667 4.4 10.85 4.4 10.9333C4.4 11.1167 4.46389 11.275 4.59167 11.4083C4.725 11.5361 4.88333 11.6 5.06667 11.6Z"
      fill="currentColor" />
  </svg>
  <svg id="approve-filled" width="16" height="16" viewBox="0 0 16 16" fill="none"
    xmlns="http://www.w3.org/2000/svg">
    <path
      d="M8 0C12.4183 0 16 3.58172 16 8C16 12.4183 12.4183 16 8 16C3.58172 16 0 12.4183 0 8C0 3.58172 3.58172 0 8 0ZM11.3584 5.64645C11.1849 5.47288 10.9154 5.4536 10.7206 5.58859L10.6513 5.64645L7 9.298L5.35355 7.65131L5.28431 7.59346C5.08944 7.45846 4.82001 7.47775 4.64645 7.65131C4.47288 7.82488 4.4536 8.09431 4.58859 8.28917L4.64645 8.35842L6.64645 10.3584L6.71569 10.4163C6.8862 10.5344 7.1138 10.5344 7.28431 10.4163L7.35355 10.3584L11.3584 6.35355L11.4163 6.28431C11.5513 6.08944 11.532 5.82001 11.3584 5.64645Z"
      fill="currentColor" />
  </svg>
  <svg id="filled-dot" width="8" height="8" viewBox="0 0 8 8" fill="none"
    xmlns="http://www.w3.org/2000/svg">
    <circle cx="4" cy="4" r="4" fill="currentColor" />
  </svg>
  <svg id="arrow-upload" width="17" height="17" viewBox="0 0 17 17" fill="none"
    xmlns="http://www.w3.org/2000/svg">
    <path
      d="M4 2.5C3.58579 2.5 3.25 2.83579 3.25 3.25C3.25 3.66421 3.58579 4 4 4H12.5C12.9142 4 13.25 3.66421 13.25 3.25C13.25 2.83579 12.9142 2.5 12.5 2.5H4ZM8.78033 5.21967C8.48744 4.92678 8.01256 4.92678 7.71967 5.21967L4.46967 8.46967C4.17678 8.76256 4.17678 9.23744 4.46967 9.53033C4.76256 9.82322 5.23744 9.82322 5.53033 9.53033L7.5 7.56066V13.75C7.5 14.1642 7.83579 14.5 8.25 14.5C8.66421 14.5 9 14.1642 9 13.75V7.56066L10.9697 9.53033C11.2626 9.82322 11.7374 9.82322 12.0303 9.53033C12.3232 9.23744 12.3232 8.76256 12.0303 8.46967L8.78033 5.21967Z"
      fill="currentColor" />
  </svg>
  <svg id="Capa_1" fill="currentColor" height="800px" width="800px" version="1.1"
    xmlns="http://www.w3.org/2000/svg" xmlns:xlink="http://www.w3.org/1999/xlink"
    viewBox="0 0 60 60" xml:space="preserve">
		<path d="M30,1.5c-16.542,0-30,12.112-30,27c0,5.205,1.647,10.246,4.768,14.604c-0.591,6.537-2.175,11.39-4.475,13.689
	c-0.304,0.304-0.38,0.769-0.188,1.153C0.276,58.289,0.625,58.5,1,58.5c0.046,0,0.093-0.003,0.14-0.01
	c0.405-0.057,9.813-1.412,16.617-5.338C21.622,54.711,25.738,55.5,30,55.5c16.542,0,30-12.112,30-27S46.542,1.5,30,1.5z" />
	</svg>
  <svg id="exclamationMark" xmlns="http://www.w3.org/2000/svg" width="16" height="16"
    viewBox="0 0 16 16" fill="none">
    <path
      d="M15.9263 8C15.9263 3.58172 12.3768 0 7.99829 0C3.61979 0 0.0703125 3.58172 0.0703125 8C0.0703125 12.4183 3.61979 16 7.99829 16C12.3768 16 15.9263 12.4183 15.9263 8ZM7.51078 6.91012C7.55273 6.67687 7.75504 6.49999 7.99829 6.49999C8.24154 6.49999 8.44385 6.67687 8.48581 6.91012L8.49379 6.99999V11.5021L8.48581 11.592C8.44385 11.8253 8.24154 12.0021 7.99829 12.0021C7.75504 12.0021 7.55273 11.8253 7.51078 11.592L7.50279 11.5021V6.99999L7.51078 6.91012ZM7.25504 4.74999C7.25504 4.33578 7.58781 3.99999 7.99829 3.99999C8.40877 3.99999 8.74154 4.33578 8.74154 4.74999C8.74154 5.16421 8.40877 5.49999 7.99829 5.49999C7.58781 5.49999 7.25504 5.16421 7.25504 4.74999Z"
      fill="currentColor" />
  </svg>

  <svg id="burger-menu" width="24" height="24" viewBox="0 0 24 24" fill="none"
    xmlns="http://www.w3.org/2000/svg">
    <path d="M3 7H21" stroke="currentColor" stroke-width="1.5" stroke-linecap="round" />
    <path d="M3 12H21" stroke="currentColor" stroke-width="1.5" stroke-linecap="round" />
    <path d="M3 17H21" stroke="currentColor" stroke-width="1.5" stroke-linecap="round" />
  </svg>

  <svg id='login-icon' xmlns="http://www.w3.org/2000/svg" width="85" height="81" viewBox="0 0 85 81"
    fill="none">
    <ellipse opacity="0.1" cx="40.8457" cy="78.0849" rx="40.25" ry="2.415" fill="white" />
    <path fill-rule="evenodd" clip-rule="evenodd"
      d="M18.8347 58H53.9347C54.1333 58 54.3268 57.9786 54.5132 57.9379C54.6996 57.9786 54.8932 58 55.0918 58H75.1489C76.6401 58 77.8489 56.7912 77.8489 55.3C77.8489 53.8088 76.6401 52.6 75.1489 52.6H72.8347C71.3435 52.6 70.1347 51.3912 70.1347 49.9C70.1347 48.4088 71.3435 47.2 72.8347 47.2H80.1632C81.6544 47.2 82.8632 45.9912 82.8632 44.5C82.8632 43.0088 81.6544 41.8 80.1632 41.8H71.6775C73.1687 41.8 74.3775 40.5912 74.3775 39.1C74.3775 37.6088 73.1687 36.4 71.6775 36.4H46.9918C48.483 36.4 49.6918 35.1912 49.6918 33.7C49.6918 32.2088 48.483 31 46.9918 31H25.0061C23.5149 31 22.3061 32.2088 22.3061 33.7C22.3061 35.1912 23.5149 36.4 25.0061 36.4H9.57751C8.08634 36.4 6.87751 37.6088 6.87751 39.1C6.87751 40.5912 8.08634 41.8 9.57751 41.8H19.2204C20.7115 41.8 21.9204 43.0088 21.9204 44.5C21.9204 45.9912 20.7115 47.2 19.2204 47.2H3.7918C2.30063 47.2 1.0918 48.4088 1.0918 49.9C1.0918 51.3912 2.30063 52.6 3.7918 52.6H18.8347C17.3435 52.6 16.1347 53.8088 16.1347 55.3C16.1347 56.7912 17.3435 58 18.8347 58ZM81.7061 58C83.1973 58 84.4061 56.7912 84.4061 55.3C84.4061 53.8088 83.1973 52.6 81.7061 52.6C80.2149 52.6 79.0061 53.8088 79.0061 55.3C79.0061 56.7912 80.2149 58 81.7061 58Z"
      fill="#8FA8CA" fill-opacity="0.63" />
    <path fill-rule="evenodd" clip-rule="evenodd"
      d="M6.23109 17.7104C6.23109 12.3754 10.556 8.05043 15.8911 8.05043C21.2262 8.05043 25.5511 12.3754 25.5511 17.7104C25.5511 20.2903 24.5398 22.6339 22.892 24.3665C22.7722 24.4764 22.6571 24.5915 22.5472 24.7113C20.8146 26.3591 18.4709 27.3704 15.8911 27.3704C10.556 27.3704 6.23109 23.0455 6.23109 17.7104ZM21.1255 27.6937C19.5615 28.5154 17.7806 28.9804 15.8911 28.9804C15.6204 28.9804 15.352 28.9709 15.0861 28.9521V51.4974C15.0861 53.7204 16.8881 55.5224 19.1111 55.5224H21.0654V28.5198C21.0654 28.2391 21.0859 27.9633 21.1255 27.6937ZM13.4761 28.7211C8.41235 27.6155 4.62109 23.1057 4.62109 17.7104C4.62109 11.4862 9.66684 6.44043 15.8911 6.44043C21.2864 6.44043 25.7962 10.2317 26.9017 15.2954H54.9911C58.1032 15.2954 60.6261 17.8183 60.6261 20.9304V22.8848H62.5804C65.6925 22.8848 68.2154 25.4076 68.2154 28.5198V59.0868C68.2154 62.1989 65.6925 64.7218 62.5804 64.7218H26.7004C23.5883 64.7218 21.0654 62.1989 21.0654 59.0868V57.1324H19.1111C15.999 57.1324 13.4761 54.6096 13.4761 51.4974V28.7211ZM27.1328 16.9054C27.1516 17.1713 27.1611 17.4398 27.1611 17.7104C27.1611 19.5999 26.6961 21.3808 25.8743 22.9449C26.144 22.9053 26.4198 22.8848 26.7004 22.8848H59.0161V20.9304C59.0161 18.7075 57.214 16.9054 54.9911 16.9054H27.1328ZM23.7013 25.8354C23.8082 25.7325 23.9132 25.6276 24.016 25.5206C24.7282 24.8827 25.669 24.4948 26.7004 24.4948H62.5804C64.8034 24.4948 66.6054 26.2968 66.6054 28.5198V59.0868C66.6054 61.3097 64.8034 63.1118 62.5804 63.1118H26.7004C24.4775 63.1118 22.6754 61.3097 22.6754 59.0868V28.5198C22.6754 27.4884 23.0634 26.5476 23.7013 25.8354ZM68.5464 14.2766C69.7177 14.2766 70.6673 15.2261 70.6673 16.3974C70.6673 17.5688 69.7177 18.5183 68.5464 18.5183H64.1834C63.0121 18.5183 62.0626 17.5688 62.0626 16.3974C62.0626 15.2261 63.0121 14.2766 64.1834 14.2766H68.5464ZM69.0573 16.3974C69.0573 16.1153 68.8285 15.8866 68.5464 15.8866H64.1834C63.9013 15.8866 63.6726 16.1153 63.6726 16.3974C63.6726 16.6796 63.9013 16.9083 64.1834 16.9083L68.5464 16.9083C68.8285 16.9083 69.0573 16.6796 69.0573 16.3974ZM54.7164 37.7683C54.7164 39.3069 53.4692 40.5541 51.9306 40.5541C50.3921 40.5541 49.1449 39.3069 49.1449 37.7683C49.1449 36.2298 50.3921 34.9826 51.9306 34.9826C53.4692 34.9826 54.7164 36.2298 54.7164 37.7683ZM40.1776 46.2252H44.0316C45.0567 45.1604 46.4968 44.498 48.0916 44.498H55.8688C58.9813 44.498 61.5044 47.0211 61.5044 50.1336C61.5044 51.0673 60.7474 51.8243 59.8137 51.8243H52.1457C52.2607 52.3347 52.3214 52.8657 52.3214 53.4109C52.3214 54.6015 51.3563 55.5667 50.1657 55.5667H30.1894C28.9988 55.5667 28.0337 54.6015 28.0337 53.4109C28.0337 49.4424 31.2508 46.2252 35.2193 46.2252H40.1776ZM48.0916 46.108C47.5765 46.108 47.0841 46.2047 46.6313 46.381C48.8018 46.8405 50.6106 48.2798 51.573 50.2143H59.8137C59.8582 50.2143 59.8944 50.1782 59.8944 50.1336C59.8944 47.9103 58.0921 46.108 55.8688 46.108H48.0916ZM56.3264 37.7683C56.3264 40.196 54.3583 42.1641 51.9306 42.1641C49.5029 42.1641 47.5349 40.196 47.5349 37.7683C47.5349 35.3406 49.5029 33.3726 51.9306 33.3726C54.3583 33.3726 56.3264 35.3406 56.3264 37.7683ZM45.7209 37.6426C45.7209 40.7381 43.2115 43.2475 40.1161 43.2475C37.0206 43.2475 34.5112 40.7381 34.5112 37.6426C34.5112 34.5471 37.0206 32.0377 40.1161 32.0377C43.2115 32.0377 45.7209 34.5471 45.7209 37.6426ZM10.2561 62.4966C10.2561 63.6679 11.2056 64.6174 12.3769 64.6174H16.7399C17.9112 64.6174 18.8607 63.6679 18.8607 62.4966C18.8607 61.3252 17.9112 60.3757 16.7399 60.3757H12.3769C11.2056 60.3757 10.2561 61.3252 10.2561 62.4966ZM12.3769 63.0074C12.0948 63.0074 11.8661 62.7787 11.8661 62.4966C11.8661 62.2144 12.0948 61.9857 12.3769 61.9857L16.7399 61.9857C17.022 61.9857 17.2507 62.2144 17.2507 62.4966C17.2507 62.7787 17.022 63.0074 16.7399 63.0074H12.3769ZM13.8786 12.4779C13.8786 11.3665 14.7796 10.4654 15.8911 10.4654C17.0026 10.4654 17.9036 11.3665 17.9036 12.4779V17.3079C17.9036 18.4194 17.0026 19.3204 15.8911 19.3204C14.7796 19.3204 13.8786 18.4194 13.8786 17.3079V12.4779ZM15.8911 12.0754C15.6688 12.0754 15.4886 12.2556 15.4886 12.4779V17.3079C15.4886 17.5302 15.6688 17.7104 15.8911 17.7104C16.1134 17.7104 16.2936 17.5302 16.2936 17.3079V12.4779C16.2936 12.2556 16.1134 12.0754 15.8911 12.0754ZM15.8911 24.9554C14.7796 24.9554 13.8786 24.0544 13.8786 22.9429C13.8786 21.8315 14.7796 20.9304 15.8911 20.9304C17.0026 20.9304 17.9036 21.8315 17.9036 22.9429C17.9036 24.0544 17.0026 24.9554 15.8911 24.9554ZM15.4886 22.9429C15.4886 23.1652 15.6688 23.3454 15.8911 23.3454C16.1134 23.3454 16.2936 23.1652 16.2936 22.9429C16.2936 22.7206 16.1134 22.5404 15.8911 22.5404C15.6688 22.5404 15.4886 22.7206 15.4886 22.9429Z"
      fill="white" />
  </svg>

  <svg id='arrow-down' xmlns="http://www.w3.org/2000/svg" width="20" height="20" viewBox="0 0 20 20"
    fill="none">
    <path
      d="M6.14645 8.64645C6.34171 8.45118 6.65829 8.45118 6.85355 8.64645L10 11.7929L13.1464 8.64645C13.3417 8.45118 13.6583 8.45118 13.8536 8.64645C14.0488 8.84171 14.0488 9.15829 13.8536 9.35355L10.3536 12.8536C10.1583 13.0488 9.84171 13.0488 9.64645 12.8536L6.14645 9.35355C5.95118 9.15829 5.95118 8.84171 6.14645 8.64645Z"
      fill="currentColor" />
  </svg>

  <svg id='arrow-up' xmlns="http://www.w3.org/2000/svg" width="20" height="20" viewBox="0 0 20 20"
    fill="none">
    <path
      d="M6.14645 11.3536C6.34171 11.5488 6.65829 11.5488 6.85355 11.3536L10 8.20711L13.1464 11.3536C13.3417 11.5488 13.6583 11.5488 13.8536 11.3536C14.0488 11.1583 14.0488 10.8417 13.8536 10.6464L10.3536 7.14645C10.1583 6.95118 9.84171 6.95118 9.64645 7.14645L6.14645 10.6464C5.95118 10.8417 5.95118 11.1583 6.14645 11.3536Z"
      fill="currentColor" />
  </svg>

  <svg id='mail-read' height="512px" style="enable-background:new 0 0 512 512;" version="1.1"
    viewBox="0 0 512 512" width="512px" xml:space="preserve" xmlns="http://www.w3.org/2000/svg"
    xmlns:xlink="http://www.w3.org/1999/xlink"><path d="M64,128v256h384V128H64z M256,267.9L93.2,144h325.6L256,267.9z M80,368V154.1l115.1,87.6L127,319l2,2l78.9-69.6L256,288  l48.1-36.6L383,321l2-2l-68.1-77.4L432,154.1V368H80z"/>
  </svg>

  <svg id='question' xmlns="http://www.w3.org/2000/svg" width="20" height="20" viewBox="0 0 20 20"
    fill="none">
    <path fill-rule="evenodd" clip-rule="evenodd"
      d="M1.66699 9.99984C1.66699 5.39984 5.40033 1.6665 10.0003 1.6665C14.6003 1.6665 18.3337 5.39984 18.3337 9.99984C18.3337 14.5998 14.6003 18.3332 10.0003 18.3332C5.40033 18.3332 1.66699 14.5998 1.66699 9.99984ZM9.16699 13.3332V14.9998H10.8337V13.3332H9.16699ZM10.0003 16.6665C6.32533 16.6665 3.33366 13.6748 3.33366 9.99984C3.33366 6.32484 6.32533 3.33317 10.0003 3.33317C13.6753 3.33317 16.667 6.32484 16.667 9.99984C16.667 13.6748 13.6753 16.6665 10.0003 16.6665ZM13.3337 8.33317C13.3337 6.4915 11.842 4.99984 10.0003 4.99984C8.15866 4.99984 6.66699 6.4915 6.66699 8.33317C6.66699 9.40227 7.32534 9.9776 7.96636 10.5378C8.57448 11.0692 9.16699 11.587 9.16699 12.4998H10.8337C10.8337 10.9821 10.0486 10.3803 9.35829 9.85123C8.8168 9.43618 8.33366 9.06585 8.33366 8.33317C8.33366 7.4165 9.08366 6.6665 10.0003 6.6665C10.917 6.6665 11.667 7.4165 11.667 8.33317H13.3337Z"
      fill="currentColor" />
  </svg>

  <svg id='plus' xmlns="http://www.w3.org/2000/svg" width="24" height="24" viewBox="0 0 24 24"
    fill="none">
    <path d="M12 6L12 18" stroke="currentColor" stroke-width="2" stroke-linecap="square"
      stroke-linejoin="round" />
    <path d="M18 12L6 12" stroke="currentColor" stroke-width="2" stroke-linecap="square"
      stroke-linejoin="round" />
  </svg>

  <svg id="document-table-checkmark" width="20" height="20" viewBox="0 0 20 20" fill="none" xmlns="http://www.w3.org/2000/svg">
    <path d="M15.0007 17.0832H10.2238C9.98449 17.5424 9.68129 17.9629 9.32601 18.3332H15.0007C15.9207 18.3332 16.6673 17.5865 16.6673 16.6665V8.18984C16.6673 7.74817 16.4915 7.324 16.179 7.0115L11.3215 2.15484C11.309 2.14238 11.2949 2.13157 11.2809 2.12083C11.2705 2.1129 11.2602 2.105 11.2507 2.0965C11.1915 2.04317 11.1332 1.99067 11.0682 1.9465C11.0471 1.93229 11.024 1.92107 11.0011 1.9099C10.9877 1.90339 10.9744 1.89689 10.9615 1.88984C10.9476 1.882 10.9337 1.87398 10.9198 1.86594C10.8747 1.83981 10.8293 1.81357 10.7815 1.79317C10.6173 1.72484 10.4407 1.69067 10.2615 1.67817C10.2451 1.67712 10.2288 1.6749 10.2125 1.67268C10.1899 1.6696 10.1672 1.6665 10.144 1.6665H5.00065C4.08065 1.6665 3.33398 2.41317 3.33398 3.33317V9.58164C3.72913 9.41686 4.14797 9.29754 4.58398 9.23021V3.33317C4.58398 3.104 4.77065 2.9165 5.00065 2.9165H10.0007V6.6665C10.0007 7.5865 10.7473 8.33317 11.6673 8.33317H15.4173V16.6665C15.4173 16.8957 15.2307 17.0832 15.0007 17.0832ZM14.4823 7.08317H11.6673C11.4373 7.08317 11.2507 6.89567 11.2507 6.6665V3.85067L14.4823 7.08317ZM10.834 14.5832C10.834 15.0134 10.7838 15.4319 10.689 15.8332H12.709C13.5144 15.8332 14.1673 15.1803 14.1673 14.3748V11.0415C14.1673 10.2361 13.5144 9.58317 12.709 9.58317H7.50432C8.31688 9.92273 9.02906 10.4546 9.58398 11.1219V10.8332H12.709C12.824 10.8332 12.9173 10.9264 12.9173 11.0415V12.0832H10.2238C10.4276 12.4743 10.5852 12.8934 10.689 13.3332H12.9173V14.3748C12.9173 14.4899 12.824 14.5832 12.709 14.5832H10.834ZM10.0007 14.5832C10.0007 17.1145 7.94862 19.1665 5.41732 19.1665C2.88601 19.1665 0.833984 17.1145 0.833984 14.5832C0.833984 12.0519 2.88601 9.99984 5.41732 9.99984C7.94862 9.99984 10.0007 12.0519 10.0007 14.5832ZM8.21195 12.6219C8.04923 12.4592 7.78541 12.4592 7.62269 12.6219L4.58398 15.6606L3.21195 14.2885C3.04923 14.1258 2.78541 14.1258 2.62269 14.2885C2.45997 14.4513 2.45997 14.7151 2.62269 14.8778L4.28936 16.5445C4.45207 16.7072 4.71589 16.7072 4.87861 16.5445L8.21195 13.2111C8.37466 13.0484 8.37466 12.7846 8.21195 12.6219Z" fill="#47A992"/>
  </svg>

  <svg id='profile-circle' xmlns="http://www.w3.org/2000/svg" width="20" height="20" viewBox="0 0 20 20" fill="none">
  <path d="M9.99935 18.3332C14.6017 18.3332 18.3327 14.6022 18.3327 9.99984C18.3327 5.39746 14.6017 1.6665 9.99935 1.6665C5.39698 1.6665 1.66602 5.39746 1.66602 9.99984C1.66602 14.6022 5.39698 18.3332 9.99935 18.3332Z" fill="currentColor" stroke="currentColor" stroke-width="1.25" stroke-linecap="round" stroke-linejoin="round"/>
  <path d="M10.099 10.6502C10.0406 10.6419 9.96562 10.6419 9.89896 10.6502C8.43229 10.6002 7.26562 9.40023 7.26562 7.92523C7.26562 6.41689 8.48229 5.19189 9.99896 5.19189C11.5073 5.19189 12.7323 6.41689 12.7323 7.92523C12.724 9.40023 11.5656 10.6002 10.099 10.6502Z" fill="#FEFEFE" stroke="#FEFEFE" stroke-width="1.25" stroke-linecap="round" stroke-linejoin="round"/>
  <path d="M15.8327 16.3381C14.2921 17.5795 12.2496 18.3335 9.99935 18.3335C7.7491 18.3335 5.70657 17.5795 4.16602 16.3381C4.25256 15.6221 4.77185 14.9215 5.69791 14.3731C8.06933 12.987 11.9467 12.987 14.3008 14.3731C15.2268 14.9215 15.7461 15.6221 15.8327 16.3381Z" fill="#FEFEFE" stroke="#FEFEFE" stroke-width="1.25" stroke-linecap="round" stroke-linejoin="round"/>
  <path d="M9.99935 18.3332C14.6017 18.3332 18.3327 14.6022 18.3327 9.99984C18.3327 5.39746 14.6017 1.6665 9.99935 1.6665C5.39698 1.6665 1.66602 5.39746 1.66602 9.99984C1.66602 14.6022 5.39698 18.3332 9.99935 18.3332Z" stroke="currentColor" stroke-width="1.25" stroke-linecap="round" stroke-linejoin="round"/>
</svg>

<svg id='cloud-arrow-up' xmlns="http://www.w3.org/2000/svg" width="64" height="64" viewBox="0 0 64 64" fill="none">
  <path d="M32 12C25.3726 12 20 17.3726 20 24C20 25.1046 19.1046 26 18 26H17C12.0294 26 8 30.0294 8 35C8 39.9706 12.0294 44 17 44H20.0897C20.2135 45.3736 20.4635 46.7109 20.8281 48H17C9.8203 48 4 42.1797 4 35C4 28.116 9.35076 22.4817 16.1202 22.0293C17.0913 14.1225 23.8307 8 32 8C39.7183 8 46.1602 13.4651 47.667 20.7368C46.2713 20.3658 44.8212 20.1285 43.3311 20.0396C41.695 15.3582 37.2397 12 32 12ZM60 42C60 51.9411 51.9411 60 42 60C32.0589 60 24 51.9411 24 42C24 32.0589 32.0589 24 42 24C51.9411 24 60 32.0589 60 42ZM40.5842 32.5874L32.5858 40.5858C31.8047 41.3668 31.8047 42.6332 32.5858 43.4142C33.3668 44.1953 34.6332 44.1953 35.4142 43.4142L40 38.8284V50C40 51.1046 40.8954 52 42 52C43.1046 52 44 51.1046 44 50V38.8284L48.5858 43.4142C49.3668 44.1953 50.6332 44.1953 51.4142 43.4142C52.1953 42.6332 52.1953 41.3668 51.4142 40.5858L43.4142 32.5858C43.2225 32.394 43.0015 32.2494 42.7656 32.1518C42.5332 32.0554 42.2788 32.0016 42.012 32L42 32L41.988 32C41.7212 32.0016 41.4668 32.0554 41.2344 32.1518C41.002 32.2479 40.7841 32.3898 40.5943 32.5773L40.5842 32.5874Z" fill="currentColor"/>
</svg>

<svg id='bg-info-circle' xmlns="http://www.w3.org/2000/svg" width="36" height="36" viewBox="0 0 36 36" fill="none">
  <path d="M18 33C26.25 33 33 26.25 33 18C33 9.75 26.25 3 18 3C9.75 3 3 9.75 3 18C3 26.25 9.75 33 18 33Z" fill="#FEFEFE" stroke="#FEFEFE" stroke-width="2.25" stroke-linecap="round" stroke-linejoin="round"/>
  <path d="M18 18V25.5" stroke="currentColor" stroke-width="2.25" stroke-linecap="round" stroke-linejoin="round"/>
  <path d="M17.9922 12H18.0057" stroke="currentColor" stroke-width="3" stroke-linecap="round" stroke-linejoin="round"/>
</svg>

<svg id='bg-tick-circle' xmlns="http://www.w3.org/2000/svg" width="36" height="36" viewBox="0 0 36 36" fill="none">
  <path d="M18 33C26.25 33 33 26.25 33 18C33 9.75 26.25 3 18 3C9.75 3 3 9.75 3 18C3 26.25 9.75 33 18 33Z" fill="#FEFEFE" stroke="#FEFEFE" stroke-width="2.25" stroke-linecap="round" stroke-linejoin="round"/>
  <path d="M11.625 17.9989L15.87 22.2439L24.375 13.7539" stroke="currentColor" stroke-width="2.25" stroke-linecap="round" stroke-linejoin="round"/>
</svg>

<svg id='bg-danger' xmlns="http://www.w3.org/2000/svg" width="36" height="36" viewBox="0 0 36 36" fill="none">
<path d="M17.9992 32.113H8.90917C3.70417 32.113 1.52917 28.393 4.04917 23.848L8.72917 15.418L13.1392 7.49797C15.8092 2.68297 20.1892 2.68297 22.8592 7.49797L27.2692 15.433L31.9492 23.863C34.4692 28.408 32.2792 32.128 27.0892 32.128H17.9992V32.113Z" fill="#FEFEFE" stroke="#FEFEFE" stroke-width="2.25" stroke-linecap="round" stroke-linejoin="round"/>
<path d="M17.9922 25.5H18.0057" stroke="currentColor" stroke-width="3" stroke-linecap="round" stroke-linejoin="round"/>
<path d="M18 13.5V21" stroke="currentColor" stroke-width="2.25" stroke-linecap="round" stroke-linejoin="round"/>
</svg>

<svg id='close-circle' xmlns="http://www.w3.org/2000/svg" width="24" height="24" viewBox="0 0 24 24" fill="none">
<path d="M12 22C17.5 22 22 17.5 22 12C22 6.5 17.5 2 12 2C6.5 2 2 6.5 2 12C2 17.5 6.5 22 12 22Z" stroke="currentColor" stroke-width="1.5" stroke-linecap="round" stroke-linejoin="round"/>
<path d="M9.16992 14.8319L14.8299 9.17188" stroke="currentColor" stroke-width="1.5" stroke-linecap="round" stroke-linejoin="round"/>
<path d="M14.8299 14.8319L9.16992 9.17188" stroke="currentColor" stroke-width="1.5" stroke-linecap="round" stroke-linejoin="round"/>
</svg>

<svg id='search-status' xmlns="http://www.w3.org/2000/svg" width="16" height="16" viewBox="0 0 16 16" fill="none">
<path d="M9.33398 3.33398H13.334" stroke="currentColor" stroke-linecap="round" stroke-linejoin="round"/>
<path d="M9.33398 5.33398H11.334" stroke="currentColor" stroke-linecap="round" stroke-linejoin="round"/>
<path d="M14.0007 7.66732C14.0007 11.1673 11.1673 14.0007 7.66732 14.0007C4.16732 14.0007 1.33398 11.1673 1.33398 7.66732C1.33398 4.16732 4.16732 1.33398 7.66732 1.33398" stroke="currentColor" stroke-linecap="round" stroke-linejoin="round"/>
<path d="M14.6673 14.6673L13.334 13.334" stroke="currentColor" stroke-linecap="round" stroke-linejoin="round"/>
</svg>

<svg id='calendar' xmlns="http://www.w3.org/2000/svg" width="20" height="20" viewBox="0 0 20 20" fill="none">
<path d="M6.66602 1.66602V4.16602" stroke="currentColor" stroke-width="1.25" stroke-miterlimit="10" stroke-linecap="round" stroke-linejoin="round"/>
<path d="M13.334 1.66602V4.16602" stroke="currentColor" stroke-width="1.25" stroke-miterlimit="10" stroke-linecap="round" stroke-linejoin="round"/>
<path d="M2.91602 7.57422H17.0827" stroke="currentColor" stroke-width="1.25" stroke-miterlimit="10" stroke-linecap="round" stroke-linejoin="round"/>
<path d="M17.5 7.08268V14.166C17.5 16.666 16.25 18.3327 13.3333 18.3327H6.66667C3.75 18.3327 2.5 16.666 2.5 14.166V7.08268C2.5 4.58268 3.75 2.91602 6.66667 2.91602H13.3333C16.25 2.91602 17.5 4.58268 17.5 7.08268Z" stroke="currentColor" stroke-width="1.25" stroke-miterlimit="10" stroke-linecap="round" stroke-linejoin="round"/>
<path d="M13.0781 11.4167H13.0856" stroke="currentColor" stroke-width="1.66667" stroke-linecap="round" stroke-linejoin="round"/>
<path d="M13.0781 13.9167H13.0856" stroke="currentColor" stroke-width="1.66667" stroke-linecap="round" stroke-linejoin="round"/>
<path d="M9.99607 11.4167H10.0036" stroke="currentColor" stroke-width="1.66667" stroke-linecap="round" stroke-linejoin="round"/>
<path d="M9.99607 13.9167H10.0036" stroke="currentColor" stroke-width="1.66667" stroke-linecap="round" stroke-linejoin="round"/>
<path d="M6.91209 11.4167H6.91957" stroke="currentColor" stroke-width="1.66667" stroke-linecap="round" stroke-linejoin="round"/>
<path d="M6.91209 13.9167H6.91957" stroke="currentColor" stroke-width="1.66667" stroke-linecap="round" stroke-linejoin="round"/>
</svg>

<svg id='ellipse1186' xmlns="http://www.w3.org/2000/svg" width="19" height="34" viewBox="0 0 19 34" fill="none">
  <path d="M10.1673 33.0358C5.14989 33.8376 1.3548 24.7196 0.552974 19.7021C-0.248847 14.6846 3.01376 1.77294 8.03122 0.971119C13.0487 0.169298 17.921 11.781 18.7228 16.7984C19.5246 21.8159 15.1848 32.234 10.1673 33.0358Z" fill="currentColor"/>
</svg>

<svg id='ellipse1187' xmlns="http://www.w3.org/2000/svg" width="30" height="32" viewBox="0 0 30 32" fill="none">
<path d="M4.5 30.4998C-1.80437 27.1539 1.65443 13.7192 5.00031 7.4148C8.34618 1.11044 16.1692 -1.2879 22.4736 2.05798C28.778 5.40385 31.1763 13.2269 27.8304 19.5313C24.4846 25.8356 10.8044 33.8456 4.5 30.4998Z" fill="currentColor"/>
</svg>

<svg id='filled-circle' xmlns="http://www.w3.org/2000/svg" width="14" height="14" viewBox="0 0 14 14" fill="none">
  <circle cx="7" cy="7" r="7" fill="currentColor"/>
</svg>

<svg id='login-patern' xmlns="http://www.w3.org/2000/svg" width="48" height="38" viewBox="0 0 48 38" fill="none">
  <path d="M12 4V4C16.8477 15.5133 28.1233 23 40.6155 23H44" stroke="currentColor" stroke-width="8" stroke-linecap="round"/>
  <path d="M4 15V15C8.84769 26.5133 20.1233 34 32.6155 34H36" stroke="currentColor" stroke-width="8" stroke-linecap="round"/>
</svg>

<svg id='receipt-edit' xmlns="http://www.w3.org/2000/svg" width="32" height="32" viewBox="0 0 32 32" fill="none">
  <path d="M27.3327 15.067V9.387C27.3327 4.01367 26.0793 2.66699 21.0393 2.66699H10.9594C5.91935 2.66699 4.66602 4.01367 4.66602 9.387V24.4003C4.66602 27.947 6.6127 28.787 8.9727 26.2537L8.986 26.2403C10.0793 25.0803 11.746 25.1736 12.6927 26.4403L14.0393 28.2403" stroke="currentColor" stroke-width="2" stroke-linecap="round" stroke-linejoin="round"/>
  <path d="M10.666 9.33301H21.3327" stroke="currentColor" stroke-width="2" stroke-linecap="round" stroke-linejoin="round"/>
  <path d="M12 14.667H20" stroke="currentColor" stroke-width="2" stroke-linecap="round" stroke-linejoin="round"/>
  <path d="M24.282 19.6937L19.562 24.4137C19.3754 24.6004 19.202 24.947 19.162 25.2004L18.9087 27.0004C18.8153 27.6537 19.2687 28.1071 19.922 28.0137L21.722 27.7604C21.9753 27.7204 22.3353 27.547 22.5087 27.3604L27.2287 22.6404C28.042 21.8271 28.4287 20.8804 27.2287 19.6804C26.042 18.4937 25.0953 18.8804 24.282 19.6937Z" stroke="currentColor" stroke-width="2" stroke-miterlimit="10" stroke-linecap="round" stroke-linejoin="round"/>
  <path d="M23.5996 20.374C23.9996 21.814 25.1196 22.934 26.5596 23.334" stroke="currentColor" stroke-width="2" stroke-miterlimit="10" stroke-linecap="round" stroke-linejoin="round"/>
</svg>

<svg id='document-empty' width="120" height="120" viewBox="0 0 120 120" fill="none" xmlns="http://www.w3.org/2000/svg">
  <ellipse opacity="0.1" cx="60" cy="116.4" rx="60" ry="3.6" fill="currentColor"/>
  <path fill-rule="evenodd" clip-rule="evenodd" d="M28.4001 22.5999C28.4001 18.6234 31.6236 15.3999 35.6001 15.3999H69.1492C69.3856 15.3999 69.6208 15.4115 69.854 15.4345V31.5463C69.854 34.1973 72.003 36.3463 74.654 36.3463H89.6V66.1865C88.4403 65.9333 87.2358 65.7999 86 65.7999C76.7217 65.7999 69.2001 73.3215 69.2001 82.5999C69.2001 85.3466 69.8592 87.9393 71.0279 90.2285H35.6001C31.6236 90.2285 28.4001 87.0049 28.4001 83.0285V22.5999ZM72.5203 92.6285H35.6001C30.2981 92.6285 26.0001 88.3304 26.0001 83.0285V22.5999C26.0001 17.298 30.2981 12.9999 35.6001 12.9999H69.1492C71.6953 12.9999 74.1371 14.0113 75.9375 15.8117L89.1883 29.0625C90.9886 30.8628 92 33.3046 92 35.8507V36.261L92.0004 36.3463L92 66.903C98.3153 69.3184 102.8 75.4354 102.8 82.5999C102.8 91.8783 95.2784 99.3999 86 99.3999C80.4806 99.3999 75.5829 96.7383 72.5203 92.6285ZM95.698 22.8708C94.9102 21.7525 93.4913 21.2695 92.1847 21.6749C90.1399 22.3094 89.308 24.7534 90.541 26.5037L93.1562 30.216C93.9668 31.3665 94.4055 32.7376 94.4133 34.145L94.4388 38.707C94.4485 40.4519 95.8699 41.8591 97.6149 41.8514C99.3619 41.8437 100.772 40.4207 100.763 38.6737L100.739 33.7187C100.727 31.2977 99.9727 28.9386 98.5784 26.9594L95.698 22.8708ZM92.896 23.9671C93.2084 23.8701 93.5476 23.9856 93.736 24.253L96.6163 28.3416C97.728 29.9196 98.3291 31.8004 98.3386 33.7306L98.363 38.6856C98.3651 39.1066 98.0253 39.4496 97.6043 39.4515C97.1837 39.4533 96.8411 39.1142 96.8388 38.6936L96.8133 34.1316C96.8027 32.2339 96.2111 30.3851 95.1183 28.8338L92.5031 25.1215C92.2083 24.7031 92.4072 24.1188 92.896 23.9671ZM71.6001 82.5999C71.6001 74.647 78.0471 68.1999 86 68.1999C93.9529 68.1999 100.4 74.647 100.4 82.5999C100.4 90.5528 93.9529 96.9999 86 96.9999C78.0471 96.9999 71.6001 90.5528 71.6001 82.5999Z" fill="currentColor"/>
  <path d="M79 82.5L83.6612 87L93 78" stroke="currentColor" stroke-width="2.5" stroke-linecap="round" stroke-linejoin="round"/>
  <path d="M53.7294 38.3448L46.2444 41.1648C44.5194 41.8098 43.1094 43.8498 43.1094 45.6798V56.8248C43.1094 58.5948 44.2794 60.9198 45.7044 61.9848L52.1544 66.7998C54.2694 68.3898 57.7494 68.3898 59.8644 66.7998L66.3144 61.9848C67.7394 60.9198 68.9094 58.5948 68.9094 56.8248V45.6798C68.9094 43.8348 67.4994 41.7948 65.7744 41.1498L58.2894 38.3448C57.0144 37.8798 54.9744 37.8798 53.7294 38.3448Z" stroke="currentColor" stroke-width="2.25" stroke-linecap="round" stroke-linejoin="round"/>
  <path d="M56 53.75C57.6569 53.75 59 52.4069 59 50.75C59 49.0931 57.6569 47.75 56 47.75C54.3431 47.75 53 49.0931 53 50.75C53 52.4069 54.3431 53.75 56 53.75Z" stroke="currentColor" stroke-width="2.25" stroke-miterlimit="10" stroke-linecap="round" stroke-linejoin="round"/>
  <path d="M56 53.75V58.25" stroke="currentColor" stroke-width="2.25" stroke-miterlimit="10" stroke-linecap="round" stroke-linejoin="round"/>
</svg>

<svg id='document-plus-empty' xmlns="http://www.w3.org/2000/svg" width="120" height="120" viewBox="0 0 120 120" fill="none">
  <ellipse opacity="0.1" cx="60" cy="116.4" rx="60" ry="3.6" fill="currentColor"/>
  <path fill-rule="evenodd" clip-rule="evenodd" d="M28.4703 23.0004C28.4703 19.0239 31.6939 15.8004 35.6703 15.8004H69.2195C69.4559 15.8004 69.691 15.812 69.9242 15.8349V31.9468C69.9242 34.5978 72.0732 36.7468 74.7242 36.7468H89.6703V66.587C88.5105 66.3338 87.306 66.2004 86.0703 66.2004C76.7919 66.2004 69.2703 73.722 69.2703 83.0004C69.2703 85.7471 69.9294 88.3398 71.0982 90.629H35.6703C31.6939 90.629 28.4703 87.4054 28.4703 83.429V23.0004ZM72.5906 93.029H35.6703C30.3684 93.029 26.0703 88.7309 26.0703 83.429V23.0004C26.0703 17.6985 30.3684 13.4004 35.6703 13.4004H69.2195C71.7656 13.4004 74.2074 14.4118 76.0077 16.2122L89.2585 29.463C91.0589 31.2633 92.0703 33.7051 92.0703 36.2512V36.6615L92.0706 36.7468L92.0703 67.3035C98.3856 69.7189 102.87 75.8359 102.87 83.0004C102.87 92.2788 95.3487 99.8004 86.0703 99.8004C80.5509 99.8004 75.6532 97.1387 72.5906 93.029ZM39.2703 53.6004C39.2703 51.9435 40.6135 50.6004 42.2703 50.6004H60.2703C61.9272 50.6004 63.2703 51.9435 63.2703 53.6004C63.2703 55.2572 61.9272 56.6004 60.2703 56.6004H42.2703C40.6135 56.6004 39.2703 55.2572 39.2703 53.6004ZM42.2703 53.0004C41.9389 53.0004 41.6703 53.269 41.6703 53.6004C41.6703 53.9318 41.9389 54.2004 42.2703 54.2004H60.2703C60.6017 54.2004 60.8703 53.9318 60.8703 53.6004C60.8703 53.269 60.6017 53.0004 60.2703 53.0004H42.2703ZM42.2703 60.2004C40.6135 60.2004 39.2703 61.5435 39.2703 63.2004C39.2703 64.8572 40.6135 66.2004 42.2703 66.2004H75.8703C77.5272 66.2004 78.8703 64.8572 78.8703 63.2004C78.8703 61.5435 77.5272 60.2004 75.8703 60.2004H42.2703ZM41.6703 63.2004C41.6703 62.869 41.9389 62.6004 42.2703 62.6004H75.8703C76.2017 62.6004 76.4703 62.869 76.4703 63.2004C76.4703 63.5318 76.2017 63.8004 75.8703 63.8004H42.2703C41.9389 63.8004 41.6703 63.5318 41.6703 63.2004ZM95.7682 23.2713C94.9804 22.1529 93.5615 21.67 92.255 22.0754C90.2102 22.7099 89.3782 25.1539 90.6113 26.9042L93.2265 30.6165C94.037 31.767 94.4757 33.1381 94.4836 34.5455L94.5091 39.1075C94.5188 40.8524 95.9402 42.2596 97.6851 42.2519C99.4321 42.2442 100.842 40.8212 100.833 39.0742L100.809 34.1192C100.797 31.6982 100.043 29.3391 98.6486 27.3599L95.7682 23.2713ZM92.9663 24.3676C93.2786 24.2706 93.6179 24.3861 93.8062 24.6535L96.6866 28.7421C97.7982 30.32 98.3993 32.2009 98.4089 34.131L98.4333 39.0861C98.4354 39.5071 98.0956 39.8501 97.6745 39.852C97.254 39.8538 96.9114 39.5146 96.909 39.0941L96.8835 34.5321C96.8729 32.6344 96.2814 30.7856 95.1885 29.2343L92.5733 25.522C92.2785 25.1036 92.4774 24.5193 92.9663 24.3676ZM71.6703 83.0004C71.6703 75.0475 78.1174 68.6004 86.0703 68.6004C94.0232 68.6004 100.47 75.0475 100.47 83.0004C100.47 90.9533 94.0232 97.4004 86.0703 97.4004C78.1174 97.4004 71.6703 90.9533 71.6703 83.0004Z" fill="currentColor"/>
  <path d="M80 83H92" stroke="currentColor" stroke-width="2.5" stroke-linecap="round" stroke-linejoin="round"/>
  <path d="M86 89V77" stroke="currentColor" stroke-width="2.5" stroke-linecap="round" stroke-linejoin="round"/>
</svg>

<svg id='user' xmlns="http://www.w3.org/2000/svg" width="24" height="24" viewBox="0 0 24 24" fill="none">
  <path d="M12 12C14.7614 12 17 9.76142 17 7C17 4.23858 14.7614 2 12 2C9.23858 2 7 4.23858 7 7C7 9.76142 9.23858 12 12 12Z" stroke="currentColor" stroke-width="1.5" stroke-linecap="round" stroke-linejoin="round"/>
  <path d="M20.5862 22C20.5862 18.13 16.7362 15 11.9962 15C7.25625 15 3.40625 18.13 3.40625 22" stroke="currentColor" stroke-width="1.5" stroke-linecap="round" stroke-linejoin="round"/>
</svg>


<svg id='user-add' xmlns="http://www.w3.org/2000/svg" width="24" height="24" viewBox="0 0 24 24" fill="none">
  <path d="M12 12C14.7614 12 17 9.76142 17 7C17 4.23858 14.7614 2 12 2C9.23858 2 7 4.23858 7 7C7 9.76142 9.23858 12 12 12Z" stroke="currentColor" stroke-width="1.5" stroke-linecap="round" stroke-linejoin="round"/>
  <path d="M3.40625 22C3.40625 18.13 7.25625 15 11.9962 15C12.9562 15 13.8863 15.13 14.7563 15.37" stroke="currentColor" stroke-width="1.5" stroke-linecap="round" stroke-linejoin="round"/>
  <path d="M22 18C22 18.32 21.96 18.63 21.88 18.93C21.79 19.33 21.63 19.72 21.42 20.06C20.73 21.22 19.46 22 18 22C16.97 22 16.04 21.61 15.34 20.97C15.04 20.71 14.78 20.4 14.58 20.06C14.21 19.46 14 18.75 14 18C14 16.92 14.43 15.93 15.13 15.21C15.86 14.46 16.88 14 18 14C19.18 14 20.25 14.51 20.97 15.33C21.61 16.04 22 16.98 22 18Z" stroke="currentColor" stroke-width="1.5" stroke-miterlimit="10" stroke-linecap="round" stroke-linejoin="round"/>
  <path d="M19.4878 17.98H16.5078" stroke="currentColor" stroke-miterlimit="10" stroke-linecap="round" stroke-linejoin="round"/>
  <path d="M18 16.52V19.51" stroke="currentColor" stroke-miterlimit="10" stroke-linecap="round" stroke-linejoin="round"/>
</svg>

<svg id='document-text' xmlns="http://www.w3.org/2000/svg" width="24" height="24" viewBox="0 0 24 24" fill="none">
  <path d="M22 10V15C22 20 20 22 15 22H9C4 22 2 20 2 15V9C2 4 4 2 9 2H14" stroke="currentColor" stroke-width="1.5" stroke-linecap="round" stroke-linejoin="round"/>
  <path d="M22 10H18C15 10 14 9 14 6V2L22 10Z" stroke="currentColor" stroke-width="1.5" stroke-linecap="round" stroke-linejoin="round"/>
  <path d="M7 13H13" stroke="currentColor" stroke-width="1.5" stroke-linecap="round" stroke-linejoin="round"/>
  <path d="M7 17H11" stroke="currentColor" stroke-width="1.5" stroke-linecap="round" stroke-linejoin="round"/>
</svg>

<svg id='profile-circle-3' xmlns="http://www.w3.org/2000/svg" width="24" height="24" viewBox="0 0 24 24" fill="none">
  <path d="M12 22C17.5228 22 22 17.5228 22 12C22 6.47715 17.5228 2 12 2C6.47715 2 2 6.47715 2 12C2 17.5228 6.47715 22 12 22Z" stroke="currentColor" stroke-width="1.5" stroke-linecap="round" stroke-linejoin="round"/>
  <path d="M12.1187 12.78C12.0487 12.77 11.9587 12.77 11.8787 12.78C10.1187 12.72 8.71875 11.28 8.71875 9.50998C8.71875 7.69998 10.1787 6.22998 11.9987 6.22998C13.8087 6.22998 15.2787 7.69998 15.2787 9.50998C15.2687 11.28 13.8787 12.72 12.1187 12.78Z" stroke="currentColor" stroke-width="1.5" stroke-linecap="round" stroke-linejoin="round"/>
  <path d="M18.7378 19.3801C16.9578 21.0101 14.5978 22.0001 11.9978 22.0001C9.39781 22.0001 7.03781 21.0101 5.25781 19.3801C5.35781 18.4401 5.95781 17.5201 7.02781 16.8001C9.76781 14.9801 14.2478 14.9801 16.9678 16.8001C18.0378 17.5201 18.6378 18.4401 18.7378 19.3801Z" stroke="currentColor" stroke-width="1.5" stroke-linecap="round" stroke-linejoin="round"/>
</svg>

<svg id='edit' xmlns="http://www.w3.org/2000/svg" width="22" height="22" viewBox="0 0 22 22" fill="none">
  <path d="M10.0859 1.8335H8.2526C3.66927 1.8335 1.83594 3.66683 1.83594 8.25016V13.7502C1.83594 18.3335 3.66927 20.1668 8.2526 20.1668H13.7526C18.3359 20.1668 20.1693 18.3335 20.1693 13.7502V11.9168" stroke="currentColor" stroke-width="1.5" stroke-linecap="round" stroke-linejoin="round"/>
  <path d="M14.7027 2.76832L7.4794 9.99165C7.2044 10.2667 6.9294 10.8075 6.8744 11.2017L6.48023 13.9608C6.33357 14.96 7.0394 15.6567 8.03857 15.5192L10.7977 15.125C11.1827 15.07 11.7236 14.795 12.0077 14.52L19.2311 7.29665C20.4777 6.04999 21.0644 4.60165 19.2311 2.76832C17.3977 0.934987 15.9494 1.52165 14.7027 2.76832Z" stroke="currentColor" stroke-width="1.5" stroke-miterlimit="10" stroke-linecap="round" stroke-linejoin="round"/>
  <path d="M13.6641 3.8042C14.2782 5.99503 15.9924 7.7092 18.1924 8.33253" stroke="currentColor" stroke-width="1.5" stroke-miterlimit="10" stroke-linecap="round" stroke-linejoin="round"/>
</svg>

<svg id='receipt-2' xmlns="http://www.w3.org/2000/svg" width="24" height="24" viewBox="0 0 24 24" fill="none">
  <path d="M6.73 19.7C7.55 18.82 8.8 18.89 9.52 19.85L10.53 21.2C11.34 22.27 12.65 22.27 13.46 21.2L14.47 19.85C15.19 18.89 16.44 18.82 17.26 19.7C19.04 21.6 20.49 20.97 20.49 18.31V7.04C20.5 3.01 19.56 2 15.78 2H8.22C4.44 2 3.5 3.01 3.5 7.04V18.3C3.5 20.97 4.96 21.59 6.73 19.7Z" stroke="currentColor" stroke-width="1.5" stroke-linecap="round" stroke-linejoin="round"/>
  <path d="M8.09607 11H8.10505" stroke="currentColor" stroke-width="2" stroke-linecap="round" stroke-linejoin="round"/>
  <path d="M10.8984 11H16.3984" stroke="currentColor" stroke-width="1.5" stroke-linecap="round" stroke-linejoin="round"/>
  <path d="M8.09607 7H8.10505" stroke="currentColor" stroke-width="2" stroke-linecap="round" stroke-linejoin="round"/>
  <path d="M10.8984 7H16.3984" stroke="currentColor" stroke-width="1.5" stroke-linecap="round" stroke-linejoin="round"/>
</svg>

<svg id='new-arrow-left' xmlns="http://www.w3.org/2000/svg" width="24" height="24" viewBox="0 0 24 24" fill="none">
  <path d="M14 17L10.3255 12.8838C9.89151 12.3977 9.89151 11.6023 10.3255 11.1162L14 7" stroke="currentColor" stroke-width="1.5" stroke-miterlimit="10" stroke-linecap="round" stroke-linejoin="round"/>
</svg>



<svg id='profile-circle-3' xmlns="http://www.w3.org/2000/svg" width="24" height="24" viewBox="0 0 24 24" fill="none">
  <path d="M12 22C17.5228 22 22 17.5228 22 12C22 6.47715 17.5228 2 12 2C6.47715 2 2 6.47715 2 12C2 17.5228 6.47715 22 12 22Z" stroke="currentColor" stroke-width="1.5" stroke-linecap="round" stroke-linejoin="round"/>
  <path d="M12.1187 12.78C12.0487 12.77 11.9587 12.77 11.8787 12.78C10.1187 12.72 8.71875 11.28 8.71875 9.50998C8.71875 7.69998 10.1787 6.22998 11.9987 6.22998C13.8087 6.22998 15.2787 7.69998 15.2787 9.50998C15.2687 11.28 13.8787 12.72 12.1187 12.78Z" stroke="currentColor" stroke-width="1.5" stroke-linecap="round" stroke-linejoin="round"/>
  <path d="M18.7378 19.3801C16.9578 21.0101 14.5978 22.0001 11.9978 22.0001C9.39781 22.0001 7.03781 21.0101 5.25781 19.3801C5.35781 18.4401 5.95781 17.5201 7.02781 16.8001C9.76781 14.9801 14.2478 14.9801 16.9678 16.8001C18.0378 17.5201 18.6378 18.4401 18.7378 19.3801Z" stroke="currentColor" stroke-width="1.5" stroke-linecap="round" stroke-linejoin="round"/>
</svg>
  <!-- Add more icons as needed -->
</svg>